<svg width="17" height="17" viewBox="0 0 17 17" fill="none" xmlns="http://www.w3.org/2000/svg">
<path d="M5.14667 11.8532C1.44242 8.14972 -0.0583295 3.64519 1.79342 1.79343C3.28592 0.300166 6.50342 0.986421 9.63467 3.24993M11.8532 5.1467C15.5574 8.85097 17.0582 13.3547 15.2064 15.2065C13.7147 16.6983 10.5039 16.015 7.37492 13.7575M15.2064 1.79343C17.0589 3.64519 15.5574 8.14897 11.8539 11.8532C8.14892 15.5575 3.64517 17.0583 1.79342 15.2065C0.300171 13.714 0.986421 10.4965 3.24992 7.36446C3.82236 6.57631 4.45661 5.83497 5.14667 5.14745C8.85092 1.44242 13.3547 -0.0583362 15.2064 1.79343Z" stroke="#0C6CF2" stroke-width="1.125" stroke-linecap="round"/>
<path d="M10.3749 8.50001C10.3749 8.9973 10.1773 9.47421 9.8257 9.82585C9.47407 10.1775 8.99716 10.375 8.49988 10.375C8.0026 10.375 7.52568 10.1775 7.17405 9.82585C6.82242 9.47421 6.62488 8.9973 6.62488 8.50001C6.62488 8.00273 6.82242 7.52581 7.17405 7.17418C7.52568 6.82255 8.0026 6.625 8.49988 6.625C8.99716 6.625 9.47407 6.82255 9.8257 7.17418C10.1773 7.52581 10.3749 8.00273 10.3749 8.50001Z" stroke="#0C6CF2" stroke-width="1.125"/>
</svg>
